<?xml version="1.0" encoding="utf-8" standalone="no"?>
<!DOCTYPE svg PUBLIC "-//W3C//DTD SVG 1.1//EN"
  "http://www.w3.org/Graphics/SVG/1.1/DTD/svg11.dtd">
<svg xmlns:xlink="http://www.w3.org/1999/xlink" width="540pt" height="540pt" viewBox="0 0 540 540" xmlns="http://www.w3.org/2000/svg" version="1.1">
 <metadata>
  <rdf:RDF xmlns:dc="http://purl.org/dc/elements/1.1/" xmlns:cc="http://creativecommons.org/ns#" xmlns:rdf="http://www.w3.org/1999/02/22-rdf-syntax-ns#">
   <cc:Work>
    <dc:type rdf:resource="http://purl.org/dc/dcmitype/StillImage"/>
    <dc:date>2022-12-22T14:56:35.201604</dc:date>
    <dc:format>image/svg+xml</dc:format>
    <dc:creator>
     <cc:Agent>
      <dc:title>Matplotlib v3.6.2, https://matplotlib.org/</dc:title>
     </cc:Agent>
    </dc:creator>
   </cc:Work>
  </rdf:RDF>
 </metadata>
 <defs>
  <style type="text/css">*{stroke-linejoin: round; stroke-linecap: butt}</style>
 </defs>
 <g id="figure_1">
  <g id="patch_1">
   <path d="M 0 540 
L 540 540 
L 540 0 
L 0 0 
z
" style="fill: #ffffff"/>
  </g>
  <g id="axes_1">
   <g id="patch_2">
    <path d="M 68.85 480.6 
L 484.65 480.6 
L 484.65 64.8 
L 68.85 64.8 
z
" style="fill: #ffffff"/>
   </g>
   <g id="PolyCollection_1">
    <defs>
     <path id="mce9bdcb63b" d="M 87.75 -78.3 
L 87.75 -78.3 
L 91.568182 -80.501144 
L 95.386364 -82.702289 
L 99.204545 -84.903433 
L 103.022727 -87.104577 
L 106.840909 -89.305721 
L 110.659091 -91.506866 
L 114.477273 -93.70801 
L 118.295455 -95.909154 
L 122.113636 -98.110298 
L 125.931818 -100.311443 
L 129.75 -102.512587 
L 133.568182 -104.713731 
L 137.386364 -106.914875 
L 141.204545 -109.11602 
L 145.022727 -111.317164 
L 148.840909 -113.518308 
L 152.659091 -115.719452 
L 156.477273 -117.920597 
L 160.295455 -120.121741 
L 164.113636 -122.563895 
L 167.931818 -125.933148 
L 171.75 -129.242529 
L 175.568182 -132.494396 
L 179.386364 -135.69115 
L 183.204545 -138.835203 
L 187.022727 -141.928963 
L 190.840909 -144.974813 
L 194.659091 -147.975091 
L 198.477273 -150.932078 
L 202.295455 -153.901841 
L 206.113636 -156.958221 
L 209.931818 -159.976654 
L 213.75 -162.958012 
L 217.568182 -165.903201 
L 221.386364 -168.813154 
L 225.204545 -171.688826 
L 229.022727 -174.531188 
L 232.840909 -177.34122 
L 236.659091 -180.119907 
L 240.477273 -183.068663 
L 244.295455 -186.298778 
L 248.113636 -189.513965 
L 251.931818 -192.714019 
L 255.75 -195.898745 
L 259.568182 -199.06795 
L 263.386364 -202.221453 
L 267.204545 -205.359077 
L 271.022727 -208.480657 
L 274.840909 -211.586033 
L 278.659091 -214.92763 
L 282.477273 -218.510114 
L 286.295455 -222.082233 
L 290.113636 -225.64367 
L 293.931818 -229.194101 
L 297.75 -232.733193 
L 301.568182 -236.260608 
L 305.386364 -239.775997 
L 309.204545 -243.279008 
L 313.022727 -246.769281 
L 316.840909 -250.246449 
L 320.659091 -253.710141 
L 324.477273 -257.15998 
L 328.295455 -260.595585 
L 332.113636 -264.016569 
L 335.931818 -267.422546 
L 339.75 -270.813125 
L 343.568182 -274.187915 
L 347.386364 -277.546522 
L 351.204545 -280.888558 
L 355.022727 -285.529755 
L 358.840909 -290.7199 
L 362.659091 -295.894122 
L 366.477273 -301.050987 
L 370.295455 -306.1889 
L 374.113636 -311.306086 
L 377.931818 -316.400576 
L 381.75 -321.470174 
L 385.568182 -326.51244 
L 389.386364 -331.524659 
L 393.204545 -337.524318 
L 397.022727 -343.77567 
L 400.840909 -350.027021 
L 404.659091 -356.278373 
L 408.477273 -362.529725 
L 412.295455 -368.781076 
L 416.113636 -375.032428 
L 419.931818 -381.28378 
L 423.75 -387.535132 
L 427.568182 -393.786483 
L 431.386364 -400.037835 
L 435.204545 -406.289187 
L 439.022727 -412.540538 
L 442.840909 -418.79189 
L 446.659091 -425.043242 
L 450.477273 -431.294593 
L 454.295455 -437.545945 
L 458.113636 -443.797297 
L 461.931818 -450.048648 
L 465.75 -456.3 
L 465.75 -456.3 
L 465.75 -456.3 
L 461.931818 -454.351352 
L 458.113636 -452.402703 
L 454.295455 -450.454055 
L 450.477273 -448.505407 
L 446.659091 -446.556758 
L 442.840909 -444.60811 
L 439.022727 -442.659462 
L 435.204545 -440.710813 
L 431.386364 -438.762165 
L 427.568182 -436.813517 
L 423.75 -434.864868 
L 419.931818 -432.91622 
L 416.113636 -430.967572 
L 412.295455 -429.018924 
L 408.477273 -427.070275 
L 404.659091 -425.121627 
L 400.840909 -423.172979 
L 397.022727 -421.22433 
L 393.204545 -419.275682 
L 389.386364 -417.26625 
L 385.568182 -415.033014 
L 381.75 -412.829826 
L 377.931818 -410.65397 
L 374.113636 -408.503005 
L 370.295455 -406.374737 
L 366.477273 -404.267194 
L 362.659091 -402.178605 
L 358.840909 -400.107373 
L 355.022727 -398.052063 
L 351.204545 -395.88417 
L 347.386364 -393.435296 
L 343.568182 -391.002994 
L 339.75 -388.586875 
L 335.931818 -386.186544 
L 332.113636 -383.801612 
L 328.295455 -381.431688 
L 324.477273 -379.076383 
L 320.659091 -376.735313 
L 316.840909 -374.408096 
L 313.022727 -372.094355 
L 309.204545 -369.793719 
L 305.386364 -367.505821 
L 301.568182 -365.230302 
L 297.75 -362.966807 
L 293.931818 -360.71499 
L 290.113636 -358.474511 
L 286.295455 -356.24504 
L 282.477273 -354.02625 
L 278.659091 -351.817825 
L 274.840909 -349.368513 
L 271.022727 -346.68298 
L 267.204545 -344.01365 
L 263.386364 -341.360365 
L 259.568182 -338.722959 
L 255.75 -336.101255 
L 251.931818 -333.495072 
L 248.113636 -330.904217 
L 244.295455 -328.328494 
L 240.477273 -325.7677 
L 236.659091 -322.161912 
L 232.840909 -317.876962 
L 229.022727 -313.623357 
L 225.204545 -309.402083 
L 221.386364 -305.214119 
L 217.568182 -301.060436 
L 213.75 -296.941988 
L 209.931818 -292.85971 
L 206.113636 -288.814506 
L 202.295455 -284.80725 
L 198.477273 -279.94974 
L 194.659091 -274.752182 
L 190.840909 -269.597914 
L 187.022727 -264.489218 
L 183.204545 -259.428434 
L 179.386364 -254.417941 
L 175.568182 -249.460149 
L 171.75 -244.557471 
L 167.931818 -239.712307 
L 164.113636 -234.927015 
L 160.295455 -227.68735 
L 156.477273 -219.824858 
L 152.659091 -211.962366 
L 148.840909 -204.099874 
L 145.022727 -196.237382 
L 141.204545 -188.37489 
L 137.386364 -180.512397 
L 133.568182 -172.649905 
L 129.75 -164.787413 
L 125.931818 -156.924921 
L 122.113636 -149.062429 
L 118.295455 -141.199937 
L 114.477273 -133.337445 
L 110.659091 -125.474953 
L 106.840909 -117.612461 
L 103.022727 -109.749968 
L 99.204545 -101.887476 
L 95.386364 -94.024984 
L 91.568182 -86.162492 
L 87.75 -78.3 
z
" style="stroke: #808080; stroke-opacity: 0.2"/>
    </defs>
    <g clip-path="url(#p65255f8b39)">
     <use xlink:href="#mce9bdcb63b" x="0" y="540" style="fill: #808080; fill-opacity: 0.2; stroke: #808080; stroke-opacity: 0.2"/>
    </g>
   </g>
   <g id="matplotlib.axis_1">
    <g id="xtick_1">
     <g id="line2d_1">
      <defs>
       <path id="m969f3d3cf9" d="M 0 0 
L 0 3.5 
" style="stroke: #000000; stroke-width: 0.8"/>
      </defs>
      <g>
       <use xlink:href="#m969f3d3cf9" x="87.75" y="480.6" style="stroke: #000000; stroke-width: 0.8"/>
      </g>
     </g>
     <g id="text_1">
      <!-- 0.0 -->
      <g transform="translate(79.798438 495.198438) scale(0.1 -0.1)">
       <defs>
        <path id="DejaVuSans-30" d="M 2034 4250 
Q 1547 4250 1301 3770 
Q 1056 3291 1056 2328 
Q 1056 1369 1301 889 
Q 1547 409 2034 409 
Q 2525 409 2770 889 
Q 3016 1369 3016 2328 
Q 3016 3291 2770 3770 
Q 2525 4250 2034 4250 
z
M 2034 4750 
Q 2819 4750 3233 4129 
Q 3647 3509 3647 2328 
Q 3647 1150 3233 529 
Q 2819 -91 2034 -91 
Q 1250 -91 836 529 
Q 422 1150 422 2328 
Q 422 3509 836 4129 
Q 1250 4750 2034 4750 
z
" transform="scale(0.015625)"/>
        <path id="DejaVuSans-2e" d="M 684 794 
L 1344 794 
L 1344 0 
L 684 0 
L 684 794 
z
" transform="scale(0.015625)"/>
       </defs>
       <use xlink:href="#DejaVuSans-30"/>
       <use xlink:href="#DejaVuSans-2e" x="63.623047"/>
       <use xlink:href="#DejaVuSans-30" x="95.410156"/>
      </g>
     </g>
    </g>
    <g id="xtick_2">
     <g id="line2d_2">
      <g>
       <use xlink:href="#m969f3d3cf9" x="163.35" y="480.6" style="stroke: #000000; stroke-width: 0.8"/>
      </g>
     </g>
     <g id="text_2">
      <!-- 0.2 -->
      <g transform="translate(155.398438 495.198438) scale(0.1 -0.1)">
       <defs>
        <path id="DejaVuSans-32" d="M 1228 531 
L 3431 531 
L 3431 0 
L 469 0 
L 469 531 
Q 828 903 1448 1529 
Q 2069 2156 2228 2338 
Q 2531 2678 2651 2914 
Q 2772 3150 2772 3378 
Q 2772 3750 2511 3984 
Q 2250 4219 1831 4219 
Q 1534 4219 1204 4116 
Q 875 4013 500 3803 
L 500 4441 
Q 881 4594 1212 4672 
Q 1544 4750 1819 4750 
Q 2544 4750 2975 4387 
Q 3406 4025 3406 3419 
Q 3406 3131 3298 2873 
Q 3191 2616 2906 2266 
Q 2828 2175 2409 1742 
Q 1991 1309 1228 531 
z
" transform="scale(0.015625)"/>
       </defs>
       <use xlink:href="#DejaVuSans-30"/>
       <use xlink:href="#DejaVuSans-2e" x="63.623047"/>
       <use xlink:href="#DejaVuSans-32" x="95.410156"/>
      </g>
     </g>
    </g>
    <g id="xtick_3">
     <g id="line2d_3">
      <g>
       <use xlink:href="#m969f3d3cf9" x="238.95" y="480.6" style="stroke: #000000; stroke-width: 0.8"/>
      </g>
     </g>
     <g id="text_3">
      <!-- 0.4 -->
      <g transform="translate(230.998438 495.198438) scale(0.1 -0.1)">
       <defs>
        <path id="DejaVuSans-34" d="M 2419 4116 
L 825 1625 
L 2419 1625 
L 2419 4116 
z
M 2253 4666 
L 3047 4666 
L 3047 1625 
L 3713 1625 
L 3713 1100 
L 3047 1100 
L 3047 0 
L 2419 0 
L 2419 1100 
L 313 1100 
L 313 1709 
L 2253 4666 
z
" transform="scale(0.015625)"/>
       </defs>
       <use xlink:href="#DejaVuSans-30"/>
       <use xlink:href="#DejaVuSans-2e" x="63.623047"/>
       <use xlink:href="#DejaVuSans-34" x="95.410156"/>
      </g>
     </g>
    </g>
    <g id="xtick_4">
     <g id="line2d_4">
      <g>
       <use xlink:href="#m969f3d3cf9" x="314.55" y="480.6" style="stroke: #000000; stroke-width: 0.8"/>
      </g>
     </g>
     <g id="text_4">
      <!-- 0.6 -->
      <g transform="translate(306.598437 495.198438) scale(0.1 -0.1)">
       <defs>
        <path id="DejaVuSans-36" d="M 2113 2584 
Q 1688 2584 1439 2293 
Q 1191 2003 1191 1497 
Q 1191 994 1439 701 
Q 1688 409 2113 409 
Q 2538 409 2786 701 
Q 3034 994 3034 1497 
Q 3034 2003 2786 2293 
Q 2538 2584 2113 2584 
z
M 3366 4563 
L 3366 3988 
Q 3128 4100 2886 4159 
Q 2644 4219 2406 4219 
Q 1781 4219 1451 3797 
Q 1122 3375 1075 2522 
Q 1259 2794 1537 2939 
Q 1816 3084 2150 3084 
Q 2853 3084 3261 2657 
Q 3669 2231 3669 1497 
Q 3669 778 3244 343 
Q 2819 -91 2113 -91 
Q 1303 -91 875 529 
Q 447 1150 447 2328 
Q 447 3434 972 4092 
Q 1497 4750 2381 4750 
Q 2619 4750 2861 4703 
Q 3103 4656 3366 4563 
z
" transform="scale(0.015625)"/>
       </defs>
       <use xlink:href="#DejaVuSans-30"/>
       <use xlink:href="#DejaVuSans-2e" x="63.623047"/>
       <use xlink:href="#DejaVuSans-36" x="95.410156"/>
      </g>
     </g>
    </g>
    <g id="xtick_5">
     <g id="line2d_5">
      <g>
       <use xlink:href="#m969f3d3cf9" x="390.15" y="480.6" style="stroke: #000000; stroke-width: 0.8"/>
      </g>
     </g>
     <g id="text_5">
      <!-- 0.8 -->
      <g transform="translate(382.198437 495.198438) scale(0.1 -0.1)">
       <defs>
        <path id="DejaVuSans-38" d="M 2034 2216 
Q 1584 2216 1326 1975 
Q 1069 1734 1069 1313 
Q 1069 891 1326 650 
Q 1584 409 2034 409 
Q 2484 409 2743 651 
Q 3003 894 3003 1313 
Q 3003 1734 2745 1975 
Q 2488 2216 2034 2216 
z
M 1403 2484 
Q 997 2584 770 2862 
Q 544 3141 544 3541 
Q 544 4100 942 4425 
Q 1341 4750 2034 4750 
Q 2731 4750 3128 4425 
Q 3525 4100 3525 3541 
Q 3525 3141 3298 2862 
Q 3072 2584 2669 2484 
Q 3125 2378 3379 2068 
Q 3634 1759 3634 1313 
Q 3634 634 3220 271 
Q 2806 -91 2034 -91 
Q 1263 -91 848 271 
Q 434 634 434 1313 
Q 434 1759 690 2068 
Q 947 2378 1403 2484 
z
M 1172 3481 
Q 1172 3119 1398 2916 
Q 1625 2713 2034 2713 
Q 2441 2713 2670 2916 
Q 2900 3119 2900 3481 
Q 2900 3844 2670 4047 
Q 2441 4250 2034 4250 
Q 1625 4250 1398 4047 
Q 1172 3844 1172 3481 
z
" transform="scale(0.015625)"/>
       </defs>
       <use xlink:href="#DejaVuSans-30"/>
       <use xlink:href="#DejaVuSans-2e" x="63.623047"/>
       <use xlink:href="#DejaVuSans-38" x="95.410156"/>
      </g>
     </g>
    </g>
    <g id="xtick_6">
     <g id="line2d_6">
      <g>
       <use xlink:href="#m969f3d3cf9" x="465.75" y="480.6" style="stroke: #000000; stroke-width: 0.8"/>
      </g>
     </g>
     <g id="text_6">
      <!-- 1.0 -->
      <g transform="translate(457.798437 495.198438) scale(0.1 -0.1)">
       <defs>
        <path id="DejaVuSans-31" d="M 794 531 
L 1825 531 
L 1825 4091 
L 703 3866 
L 703 4441 
L 1819 4666 
L 2450 4666 
L 2450 531 
L 3481 531 
L 3481 0 
L 794 0 
L 794 531 
z
" transform="scale(0.015625)"/>
       </defs>
       <use xlink:href="#DejaVuSans-31"/>
       <use xlink:href="#DejaVuSans-2e" x="63.623047"/>
       <use xlink:href="#DejaVuSans-30" x="95.410156"/>
      </g>
     </g>
    </g>
    <g id="text_7">
     <!-- False Positive Rate -->
     <g transform="translate(230.283594 508.876563) scale(0.1 -0.1)">
      <defs>
       <path id="DejaVuSans-46" d="M 628 4666 
L 3309 4666 
L 3309 4134 
L 1259 4134 
L 1259 2759 
L 3109 2759 
L 3109 2228 
L 1259 2228 
L 1259 0 
L 628 0 
L 628 4666 
z
" transform="scale(0.015625)"/>
       <path id="DejaVuSans-61" d="M 2194 1759 
Q 1497 1759 1228 1600 
Q 959 1441 959 1056 
Q 959 750 1161 570 
Q 1363 391 1709 391 
Q 2188 391 2477 730 
Q 2766 1069 2766 1631 
L 2766 1759 
L 2194 1759 
z
M 3341 1997 
L 3341 0 
L 2766 0 
L 2766 531 
Q 2569 213 2275 61 
Q 1981 -91 1556 -91 
Q 1019 -91 701 211 
Q 384 513 384 1019 
Q 384 1609 779 1909 
Q 1175 2209 1959 2209 
L 2766 2209 
L 2766 2266 
Q 2766 2663 2505 2880 
Q 2244 3097 1772 3097 
Q 1472 3097 1187 3025 
Q 903 2953 641 2809 
L 641 3341 
Q 956 3463 1253 3523 
Q 1550 3584 1831 3584 
Q 2591 3584 2966 3190 
Q 3341 2797 3341 1997 
z
" transform="scale(0.015625)"/>
       <path id="DejaVuSans-6c" d="M 603 4863 
L 1178 4863 
L 1178 0 
L 603 0 
L 603 4863 
z
" transform="scale(0.015625)"/>
       <path id="DejaVuSans-73" d="M 2834 3397 
L 2834 2853 
Q 2591 2978 2328 3040 
Q 2066 3103 1784 3103 
Q 1356 3103 1142 2972 
Q 928 2841 928 2578 
Q 928 2378 1081 2264 
Q 1234 2150 1697 2047 
L 1894 2003 
Q 2506 1872 2764 1633 
Q 3022 1394 3022 966 
Q 3022 478 2636 193 
Q 2250 -91 1575 -91 
Q 1294 -91 989 -36 
Q 684 19 347 128 
L 347 722 
Q 666 556 975 473 
Q 1284 391 1588 391 
Q 1994 391 2212 530 
Q 2431 669 2431 922 
Q 2431 1156 2273 1281 
Q 2116 1406 1581 1522 
L 1381 1569 
Q 847 1681 609 1914 
Q 372 2147 372 2553 
Q 372 3047 722 3315 
Q 1072 3584 1716 3584 
Q 2034 3584 2315 3537 
Q 2597 3491 2834 3397 
z
" transform="scale(0.015625)"/>
       <path id="DejaVuSans-65" d="M 3597 1894 
L 3597 1613 
L 953 1613 
Q 991 1019 1311 708 
Q 1631 397 2203 397 
Q 2534 397 2845 478 
Q 3156 559 3463 722 
L 3463 178 
Q 3153 47 2828 -22 
Q 2503 -91 2169 -91 
Q 1331 -91 842 396 
Q 353 884 353 1716 
Q 353 2575 817 3079 
Q 1281 3584 2069 3584 
Q 2775 3584 3186 3129 
Q 3597 2675 3597 1894 
z
M 3022 2063 
Q 3016 2534 2758 2815 
Q 2500 3097 2075 3097 
Q 1594 3097 1305 2825 
Q 1016 2553 972 2059 
L 3022 2063 
z
" transform="scale(0.015625)"/>
       <path id="DejaVuSans-20" transform="scale(0.015625)"/>
       <path id="DejaVuSans-50" d="M 1259 4147 
L 1259 2394 
L 2053 2394 
Q 2494 2394 2734 2622 
Q 2975 2850 2975 3272 
Q 2975 3691 2734 3919 
Q 2494 4147 2053 4147 
L 1259 4147 
z
M 628 4666 
L 2053 4666 
Q 2838 4666 3239 4311 
Q 3641 3956 3641 3272 
Q 3641 2581 3239 2228 
Q 2838 1875 2053 1875 
L 1259 1875 
L 1259 0 
L 628 0 
L 628 4666 
z
" transform="scale(0.015625)"/>
       <path id="DejaVuSans-6f" d="M 1959 3097 
Q 1497 3097 1228 2736 
Q 959 2375 959 1747 
Q 959 1119 1226 758 
Q 1494 397 1959 397 
Q 2419 397 2687 759 
Q 2956 1122 2956 1747 
Q 2956 2369 2687 2733 
Q 2419 3097 1959 3097 
z
M 1959 3584 
Q 2709 3584 3137 3096 
Q 3566 2609 3566 1747 
Q 3566 888 3137 398 
Q 2709 -91 1959 -91 
Q 1206 -91 779 398 
Q 353 888 353 1747 
Q 353 2609 779 3096 
Q 1206 3584 1959 3584 
z
" transform="scale(0.015625)"/>
       <path id="DejaVuSans-69" d="M 603 3500 
L 1178 3500 
L 1178 0 
L 603 0 
L 603 3500 
z
M 603 4863 
L 1178 4863 
L 1178 4134 
L 603 4134 
L 603 4863 
z
" transform="scale(0.015625)"/>
       <path id="DejaVuSans-74" d="M 1172 4494 
L 1172 3500 
L 2356 3500 
L 2356 3053 
L 1172 3053 
L 1172 1153 
Q 1172 725 1289 603 
Q 1406 481 1766 481 
L 2356 481 
L 2356 0 
L 1766 0 
Q 1100 0 847 248 
Q 594 497 594 1153 
L 594 3053 
L 172 3053 
L 172 3500 
L 594 3500 
L 594 4494 
L 1172 4494 
z
" transform="scale(0.015625)"/>
       <path id="DejaVuSans-76" d="M 191 3500 
L 800 3500 
L 1894 563 
L 2988 3500 
L 3597 3500 
L 2284 0 
L 1503 0 
L 191 3500 
z
" transform="scale(0.015625)"/>
       <path id="DejaVuSans-52" d="M 2841 2188 
Q 3044 2119 3236 1894 
Q 3428 1669 3622 1275 
L 4263 0 
L 3584 0 
L 2988 1197 
Q 2756 1666 2539 1819 
Q 2322 1972 1947 1972 
L 1259 1972 
L 1259 0 
L 628 0 
L 628 4666 
L 2053 4666 
Q 2853 4666 3247 4331 
Q 3641 3997 3641 3322 
Q 3641 2881 3436 2590 
Q 3231 2300 2841 2188 
z
M 1259 4147 
L 1259 2491 
L 2053 2491 
Q 2509 2491 2742 2702 
Q 2975 2913 2975 3322 
Q 2975 3731 2742 3939 
Q 2509 4147 2053 4147 
L 1259 4147 
z
" transform="scale(0.015625)"/>
      </defs>
      <use xlink:href="#DejaVuSans-46"/>
      <use xlink:href="#DejaVuSans-61" x="48.394531"/>
      <use xlink:href="#DejaVuSans-6c" x="109.673828"/>
      <use xlink:href="#DejaVuSans-73" x="137.457031"/>
      <use xlink:href="#DejaVuSans-65" x="189.556641"/>
      <use xlink:href="#DejaVuSans-20" x="251.080078"/>
      <use xlink:href="#DejaVuSans-50" x="282.867188"/>
      <use xlink:href="#DejaVuSans-6f" x="339.544922"/>
      <use xlink:href="#DejaVuSans-73" x="400.726562"/>
      <use xlink:href="#DejaVuSans-69" x="452.826172"/>
      <use xlink:href="#DejaVuSans-74" x="480.609375"/>
      <use xlink:href="#DejaVuSans-69" x="519.818359"/>
      <use xlink:href="#DejaVuSans-76" x="547.601562"/>
      <use xlink:href="#DejaVuSans-65" x="606.78125"/>
      <use xlink:href="#DejaVuSans-20" x="668.304688"/>
      <use xlink:href="#DejaVuSans-52" x="700.091797"/>
      <use xlink:href="#DejaVuSans-61" x="767.324219"/>
      <use xlink:href="#DejaVuSans-74" x="828.603516"/>
      <use xlink:href="#DejaVuSans-65" x="867.8125"/>
     </g>
    </g>
   </g>
   <g id="matplotlib.axis_2">
    <g id="ytick_1">
     <g id="line2d_7">
      <defs>
       <path id="m7637726f3f" d="M 0 0 
L -3.5 0 
" style="stroke: #000000; stroke-width: 0.8"/>
      </defs>
      <g>
       <use xlink:href="#m7637726f3f" x="68.85" y="461.7" style="stroke: #000000; stroke-width: 0.8"/>
      </g>
     </g>
     <g id="text_8">
      <!-- 0.0 -->
      <g transform="translate(45.946875 465.499219) scale(0.1 -0.1)">
       <use xlink:href="#DejaVuSans-30"/>
       <use xlink:href="#DejaVuSans-2e" x="63.623047"/>
       <use xlink:href="#DejaVuSans-30" x="95.410156"/>
      </g>
     </g>
    </g>
    <g id="ytick_2">
     <g id="line2d_8">
      <g>
       <use xlink:href="#m7637726f3f" x="68.85" y="386.1" style="stroke: #000000; stroke-width: 0.8"/>
      </g>
     </g>
     <g id="text_9">
      <!-- 0.2 -->
      <g transform="translate(45.946875 389.899219) scale(0.1 -0.1)">
       <use xlink:href="#DejaVuSans-30"/>
       <use xlink:href="#DejaVuSans-2e" x="63.623047"/>
       <use xlink:href="#DejaVuSans-32" x="95.410156"/>
      </g>
     </g>
    </g>
    <g id="ytick_3">
     <g id="line2d_9">
      <g>
       <use xlink:href="#m7637726f3f" x="68.85" y="310.5" style="stroke: #000000; stroke-width: 0.8"/>
      </g>
     </g>
     <g id="text_10">
      <!-- 0.4 -->
      <g transform="translate(45.946875 314.299219) scale(0.1 -0.1)">
       <use xlink:href="#DejaVuSans-30"/>
       <use xlink:href="#DejaVuSans-2e" x="63.623047"/>
       <use xlink:href="#DejaVuSans-34" x="95.410156"/>
      </g>
     </g>
    </g>
    <g id="ytick_4">
     <g id="line2d_10">
      <g>
       <use xlink:href="#m7637726f3f" x="68.85" y="234.9" style="stroke: #000000; stroke-width: 0.8"/>
      </g>
     </g>
     <g id="text_11">
      <!-- 0.6 -->
      <g transform="translate(45.946875 238.699219) scale(0.1 -0.1)">
       <use xlink:href="#DejaVuSans-30"/>
       <use xlink:href="#DejaVuSans-2e" x="63.623047"/>
       <use xlink:href="#DejaVuSans-36" x="95.410156"/>
      </g>
     </g>
    </g>
    <g id="ytick_5">
     <g id="line2d_11">
      <g>
       <use xlink:href="#m7637726f3f" x="68.85" y="159.3" style="stroke: #000000; stroke-width: 0.8"/>
      </g>
     </g>
     <g id="text_12">
      <!-- 0.8 -->
      <g transform="translate(45.946875 163.099219) scale(0.1 -0.1)">
       <use xlink:href="#DejaVuSans-30"/>
       <use xlink:href="#DejaVuSans-2e" x="63.623047"/>
       <use xlink:href="#DejaVuSans-38" x="95.410156"/>
      </g>
     </g>
    </g>
    <g id="ytick_6">
     <g id="line2d_12">
      <g>
       <use xlink:href="#m7637726f3f" x="68.85" y="83.7" style="stroke: #000000; stroke-width: 0.8"/>
      </g>
     </g>
     <g id="text_13">
      <!-- 1.0 -->
      <g transform="translate(45.946875 87.499219) scale(0.1 -0.1)">
       <use xlink:href="#DejaVuSans-31"/>
       <use xlink:href="#DejaVuSans-2e" x="63.623047"/>
       <use xlink:href="#DejaVuSans-30" x="95.410156"/>
      </g>
     </g>
    </g>
    <g id="text_14">
     <!-- True Positive Rate -->
     <g transform="translate(39.867187 317.229687) rotate(-90) scale(0.1 -0.1)">
      <defs>
       <path id="DejaVuSans-54" d="M -19 4666 
L 3928 4666 
L 3928 4134 
L 2272 4134 
L 2272 0 
L 1638 0 
L 1638 4134 
L -19 4134 
L -19 4666 
z
" transform="scale(0.015625)"/>
       <path id="DejaVuSans-72" d="M 2631 2963 
Q 2534 3019 2420 3045 
Q 2306 3072 2169 3072 
Q 1681 3072 1420 2755 
Q 1159 2438 1159 1844 
L 1159 0 
L 581 0 
L 581 3500 
L 1159 3500 
L 1159 2956 
Q 1341 3275 1631 3429 
Q 1922 3584 2338 3584 
Q 2397 3584 2469 3576 
Q 2541 3569 2628 3553 
L 2631 2963 
z
" transform="scale(0.015625)"/>
       <path id="DejaVuSans-75" d="M 544 1381 
L 544 3500 
L 1119 3500 
L 1119 1403 
Q 1119 906 1312 657 
Q 1506 409 1894 409 
Q 2359 409 2629 706 
Q 2900 1003 2900 1516 
L 2900 3500 
L 3475 3500 
L 3475 0 
L 2900 0 
L 2900 538 
Q 2691 219 2414 64 
Q 2138 -91 1772 -91 
Q 1169 -91 856 284 
Q 544 659 544 1381 
z
M 1991 3584 
L 1991 3584 
z
" transform="scale(0.015625)"/>
      </defs>
      <use xlink:href="#DejaVuSans-54"/>
      <use xlink:href="#DejaVuSans-72" x="46.333984"/>
      <use xlink:href="#DejaVuSans-75" x="87.447266"/>
      <use xlink:href="#DejaVuSans-65" x="150.826172"/>
      <use xlink:href="#DejaVuSans-20" x="212.349609"/>
      <use xlink:href="#DejaVuSans-50" x="244.136719"/>
      <use xlink:href="#DejaVuSans-6f" x="300.814453"/>
      <use xlink:href="#DejaVuSans-73" x="361.996094"/>
      <use xlink:href="#DejaVuSans-69" x="414.095703"/>
      <use xlink:href="#DejaVuSans-74" x="441.878906"/>
      <use xlink:href="#DejaVuSans-69" x="481.087891"/>
      <use xlink:href="#DejaVuSans-76" x="508.871094"/>
      <use xlink:href="#DejaVuSans-65" x="568.050781"/>
      <use xlink:href="#DejaVuSans-20" x="629.574219"/>
      <use xlink:href="#DejaVuSans-52" x="661.361328"/>
      <use xlink:href="#DejaVuSans-61" x="728.59375"/>
      <use xlink:href="#DejaVuSans-74" x="789.873047"/>
      <use xlink:href="#DejaVuSans-65" x="829.082031"/>
     </g>
    </g>
   </g>
   <g id="line2d_13">
    <path d="M 87.75 461.7 
L 276.75 348.3 
L 465.75 83.7 
" clip-path="url(#p65255f8b39)" style="fill: none; stroke: #1f77b4; stroke-opacity: 0.3; stroke-linecap: square"/>
   </g>
   <g id="line2d_14">
    <path d="M 87.75 461.7 
L 238.95 159.3 
L 465.75 83.7 
" clip-path="url(#p65255f8b39)" style="fill: none; stroke: #ff7f0e; stroke-opacity: 0.3; stroke-linecap: square"/>
   </g>
   <g id="line2d_15">
    <path d="M 87.75 461.7 
L 276.75 234.9 
L 465.75 83.7 
" clip-path="url(#p65255f8b39)" style="fill: none; stroke: #2ca02c; stroke-opacity: 0.3; stroke-linecap: square"/>
   </g>
   <g id="line2d_16">
    <path d="M 87.75 461.7 
L 352.35 234.9 
L 465.75 83.7 
" clip-path="url(#p65255f8b39)" style="fill: none; stroke: #d62728; stroke-opacity: 0.3; stroke-linecap: square"/>
   </g>
   <g id="line2d_17">
    <path d="M 87.75 461.7 
L 390.15 234.9 
L 465.75 83.7 
" clip-path="url(#p65255f8b39)" style="fill: none; stroke: #9467bd; stroke-opacity: 0.3; stroke-linecap: square"/>
   </g>
   <g id="line2d_18">
    <path d="M 87.75 461.7 
L 163.35 234.9 
L 465.75 83.7 
" clip-path="url(#p65255f8b39)" style="fill: none; stroke: #8c564b; stroke-opacity: 0.3; stroke-linecap: square"/>
   </g>
   <g id="line2d_19">
    <path d="M 87.75 461.7 
L 352.35 310.5 
L 465.75 83.7 
" clip-path="url(#p65255f8b39)" style="fill: none; stroke: #e377c2; stroke-opacity: 0.3; stroke-linecap: square"/>
   </g>
   <g id="line2d_20">
    <path d="M 87.75 461.7 
L 201.15 234.9 
L 465.75 83.7 
" clip-path="url(#p65255f8b39)" style="fill: none; stroke: #7f7f7f; stroke-opacity: 0.3; stroke-linecap: square"/>
   </g>
   <g id="line2d_21">
    <path d="M 87.75 461.7 
L 314.55 234.9 
L 465.75 83.7 
" clip-path="url(#p65255f8b39)" style="fill: none; stroke: #bcbd22; stroke-opacity: 0.3; stroke-linecap: square"/>
   </g>
   <g id="line2d_22">
    <path d="M 87.75 461.7 
L 276.75 234.9 
L 465.75 83.7 
" clip-path="url(#p65255f8b39)" style="fill: none; stroke: #17becf; stroke-opacity: 0.3; stroke-linecap: square"/>
   </g>
   <g id="line2d_23">
    <path d="M 87.75 461.7 
L 465.75 83.7 
" clip-path="url(#p65255f8b39)" style="fill: none; stroke-dasharray: 5.55,2.4; stroke-dashoffset: 0; stroke: #000000; stroke-width: 1.5"/>
   </g>
   <g id="line2d_24">
    <path d="M 87.75 461.7 
L 91.568182 456.668182 
L 95.386364 451.636364 
L 99.204545 446.604545 
L 103.022727 441.572727 
L 106.840909 436.540909 
L 110.659091 431.509091 
L 114.477273 426.477273 
L 118.295455 421.445455 
L 122.113636 416.413636 
L 125.931818 411.381818 
L 129.75 406.35 
L 133.568182 401.318182 
L 137.386364 396.286364 
L 141.204545 391.254545 
L 145.022727 386.222727 
L 148.840909 381.190909 
L 152.659091 376.159091 
L 156.477273 371.127273 
L 160.295455 366.095455 
L 164.113636 361.254545 
L 167.931818 357.177273 
L 171.75 353.1 
L 175.568182 349.022727 
L 179.386364 344.945455 
L 183.204545 340.868182 
L 187.022727 336.790909 
L 190.840909 332.713636 
L 194.659091 328.636364 
L 198.477273 324.559091 
L 202.295455 320.645455 
L 206.113636 317.113636 
L 209.931818 313.581818 
L 213.75 310.05 
L 217.568182 306.518182 
L 221.386364 302.986364 
L 225.204545 299.454545 
L 229.022727 295.922727 
L 232.840909 292.390909 
L 236.659091 288.859091 
L 240.477273 285.581818 
L 244.295455 282.686364 
L 248.113636 279.790909 
L 251.931818 276.895455 
L 255.75 274 
L 259.568182 271.104545 
L 263.386364 268.209091 
L 267.204545 265.313636 
L 271.022727 262.418182 
L 274.840909 259.522727 
L 278.659091 256.627273 
L 282.477273 253.731818 
L 286.295455 250.836364 
L 290.113636 247.940909 
L 293.931818 245.045455 
L 297.75 242.15 
L 301.568182 239.254545 
L 305.386364 236.359091 
L 309.204545 233.463636 
L 313.022727 230.568182 
L 316.840909 227.672727 
L 320.659091 224.777273 
L 324.477273 221.881818 
L 328.295455 218.986364 
L 332.113636 216.090909 
L 335.931818 213.195455 
L 339.75 210.3 
L 343.568182 207.404545 
L 347.386364 204.509091 
L 351.204545 201.613636 
L 355.022727 198.209091 
L 358.840909 194.586364 
L 362.659091 190.963636 
L 366.477273 187.340909 
L 370.295455 183.718182 
L 374.113636 180.095455 
L 377.931818 176.472727 
L 381.75 172.85 
L 385.568182 169.227273 
L 389.386364 165.604545 
L 393.204545 161.6 
L 397.022727 157.5 
L 400.840909 153.4 
L 404.659091 149.3 
L 408.477273 145.2 
L 412.295455 141.1 
L 416.113636 137 
L 419.931818 132.9 
L 423.75 128.8 
L 427.568182 124.7 
L 431.386364 120.6 
L 435.204545 116.5 
L 439.022727 112.4 
L 442.840909 108.3 
L 446.659091 104.2 
L 450.477273 100.1 
L 454.295455 96 
L 458.113636 91.9 
L 461.931818 87.8 
L 465.75 83.7 
" clip-path="url(#p65255f8b39)" style="fill: none; stroke: #0000ff; stroke-opacity: 0.8; stroke-width: 2; stroke-linecap: square"/>
   </g>
   <g id="patch_3">
    <path d="M 68.85 480.6 
L 68.85 64.8 
" style="fill: none; stroke: #000000; stroke-width: 0.8; stroke-linejoin: miter; stroke-linecap: square"/>
   </g>
   <g id="patch_4">
    <path d="M 484.65 480.6 
L 484.65 64.8 
" style="fill: none; stroke: #000000; stroke-width: 0.8; stroke-linejoin: miter; stroke-linecap: square"/>
   </g>
   <g id="patch_5">
    <path d="M 68.85 480.6 
L 484.65 480.6 
" style="fill: none; stroke: #000000; stroke-width: 0.8; stroke-linejoin: miter; stroke-linecap: square"/>
   </g>
   <g id="patch_6">
    <path d="M 68.85 64.8 
L 484.65 64.8 
" style="fill: none; stroke: #000000; stroke-width: 0.8; stroke-linejoin: miter; stroke-linecap: square"/>
   </g>
   <g id="text_15">
    <!-- Mean ROC curve with variability -->
    <g transform="translate(180.40125 45.362625) scale(0.12 -0.12)">
     <defs>
      <path id="DejaVuSans-4d" d="M 628 4666 
L 1569 4666 
L 2759 1491 
L 3956 4666 
L 4897 4666 
L 4897 0 
L 4281 0 
L 4281 4097 
L 3078 897 
L 2444 897 
L 1241 4097 
L 1241 0 
L 628 0 
L 628 4666 
z
" transform="scale(0.015625)"/>
      <path id="DejaVuSans-6e" d="M 3513 2113 
L 3513 0 
L 2938 0 
L 2938 2094 
Q 2938 2591 2744 2837 
Q 2550 3084 2163 3084 
Q 1697 3084 1428 2787 
Q 1159 2491 1159 1978 
L 1159 0 
L 581 0 
L 581 3500 
L 1159 3500 
L 1159 2956 
Q 1366 3272 1645 3428 
Q 1925 3584 2291 3584 
Q 2894 3584 3203 3211 
Q 3513 2838 3513 2113 
z
" transform="scale(0.015625)"/>
      <path id="DejaVuSans-4f" d="M 2522 4238 
Q 1834 4238 1429 3725 
Q 1025 3213 1025 2328 
Q 1025 1447 1429 934 
Q 1834 422 2522 422 
Q 3209 422 3611 934 
Q 4013 1447 4013 2328 
Q 4013 3213 3611 3725 
Q 3209 4238 2522 4238 
z
M 2522 4750 
Q 3503 4750 4090 4092 
Q 4678 3434 4678 2328 
Q 4678 1225 4090 567 
Q 3503 -91 2522 -91 
Q 1538 -91 948 565 
Q 359 1222 359 2328 
Q 359 3434 948 4092 
Q 1538 4750 2522 4750 
z
" transform="scale(0.015625)"/>
      <path id="DejaVuSans-43" d="M 4122 4306 
L 4122 3641 
Q 3803 3938 3442 4084 
Q 3081 4231 2675 4231 
Q 1875 4231 1450 3742 
Q 1025 3253 1025 2328 
Q 1025 1406 1450 917 
Q 1875 428 2675 428 
Q 3081 428 3442 575 
Q 3803 722 4122 1019 
L 4122 359 
Q 3791 134 3420 21 
Q 3050 -91 2638 -91 
Q 1578 -91 968 557 
Q 359 1206 359 2328 
Q 359 3453 968 4101 
Q 1578 4750 2638 4750 
Q 3056 4750 3426 4639 
Q 3797 4528 4122 4306 
z
" transform="scale(0.015625)"/>
      <path id="DejaVuSans-63" d="M 3122 3366 
L 3122 2828 
Q 2878 2963 2633 3030 
Q 2388 3097 2138 3097 
Q 1578 3097 1268 2742 
Q 959 2388 959 1747 
Q 959 1106 1268 751 
Q 1578 397 2138 397 
Q 2388 397 2633 464 
Q 2878 531 3122 666 
L 3122 134 
Q 2881 22 2623 -34 
Q 2366 -91 2075 -91 
Q 1284 -91 818 406 
Q 353 903 353 1747 
Q 353 2603 823 3093 
Q 1294 3584 2113 3584 
Q 2378 3584 2631 3529 
Q 2884 3475 3122 3366 
z
" transform="scale(0.015625)"/>
      <path id="DejaVuSans-77" d="M 269 3500 
L 844 3500 
L 1563 769 
L 2278 3500 
L 2956 3500 
L 3675 769 
L 4391 3500 
L 4966 3500 
L 4050 0 
L 3372 0 
L 2619 2869 
L 1863 0 
L 1184 0 
L 269 3500 
z
" transform="scale(0.015625)"/>
      <path id="DejaVuSans-68" d="M 3513 2113 
L 3513 0 
L 2938 0 
L 2938 2094 
Q 2938 2591 2744 2837 
Q 2550 3084 2163 3084 
Q 1697 3084 1428 2787 
Q 1159 2491 1159 1978 
L 1159 0 
L 581 0 
L 581 4863 
L 1159 4863 
L 1159 2956 
Q 1366 3272 1645 3428 
Q 1925 3584 2291 3584 
Q 2894 3584 3203 3211 
Q 3513 2838 3513 2113 
z
" transform="scale(0.015625)"/>
      <path id="DejaVuSans-62" d="M 3116 1747 
Q 3116 2381 2855 2742 
Q 2594 3103 2138 3103 
Q 1681 3103 1420 2742 
Q 1159 2381 1159 1747 
Q 1159 1113 1420 752 
Q 1681 391 2138 391 
Q 2594 391 2855 752 
Q 3116 1113 3116 1747 
z
M 1159 2969 
Q 1341 3281 1617 3432 
Q 1894 3584 2278 3584 
Q 2916 3584 3314 3078 
Q 3713 2572 3713 1747 
Q 3713 922 3314 415 
Q 2916 -91 2278 -91 
Q 1894 -91 1617 61 
Q 1341 213 1159 525 
L 1159 0 
L 581 0 
L 581 4863 
L 1159 4863 
L 1159 2969 
z
" transform="scale(0.015625)"/>
      <path id="DejaVuSans-79" d="M 2059 -325 
Q 1816 -950 1584 -1140 
Q 1353 -1331 966 -1331 
L 506 -1331 
L 506 -850 
L 844 -850 
Q 1081 -850 1212 -737 
Q 1344 -625 1503 -206 
L 1606 56 
L 191 3500 
L 800 3500 
L 1894 763 
L 2988 3500 
L 3597 3500 
L 2059 -325 
z
" transform="scale(0.015625)"/>
     </defs>
     <use xlink:href="#DejaVuSans-4d"/>
     <use xlink:href="#DejaVuSans-65" x="86.279297"/>
     <use xlink:href="#DejaVuSans-61" x="147.802734"/>
     <use xlink:href="#DejaVuSans-6e" x="209.082031"/>
     <use xlink:href="#DejaVuSans-20" x="272.460938"/>
     <use xlink:href="#DejaVuSans-52" x="304.248047"/>
     <use xlink:href="#DejaVuSans-4f" x="373.730469"/>
     <use xlink:href="#DejaVuSans-43" x="452.441406"/>
     <use xlink:href="#DejaVuSans-20" x="522.265625"/>
     <use xlink:href="#DejaVuSans-63" x="554.052734"/>
     <use xlink:href="#DejaVuSans-75" x="609.033203"/>
     <use xlink:href="#DejaVuSans-72" x="672.412109"/>
     <use xlink:href="#DejaVuSans-76" x="713.525391"/>
     <use xlink:href="#DejaVuSans-65" x="772.705078"/>
     <use xlink:href="#DejaVuSans-20" x="834.228516"/>
     <use xlink:href="#DejaVuSans-77" x="866.015625"/>
     <use xlink:href="#DejaVuSans-69" x="947.802734"/>
     <use xlink:href="#DejaVuSans-74" x="975.585938"/>
     <use xlink:href="#DejaVuSans-68" x="1014.794922"/>
     <use xlink:href="#DejaVuSans-20" x="1078.173828"/>
     <use xlink:href="#DejaVuSans-76" x="1109.960938"/>
     <use xlink:href="#DejaVuSans-61" x="1169.140625"/>
     <use xlink:href="#DejaVuSans-72" x="1230.419922"/>
     <use xlink:href="#DejaVuSans-69" x="1271.533203"/>
     <use xlink:href="#DejaVuSans-61" x="1299.316406"/>
     <use xlink:href="#DejaVuSans-62" x="1360.595703"/>
     <use xlink:href="#DejaVuSans-69" x="1424.072266"/>
     <use xlink:href="#DejaVuSans-6c" x="1451.855469"/>
     <use xlink:href="#DejaVuSans-69" x="1479.638672"/>
     <use xlink:href="#DejaVuSans-74" x="1507.421875"/>
     <use xlink:href="#DejaVuSans-79" x="1546.630859"/>
    </g>
    <!-- (Positive label') -->
    <g transform="translate(230.874375 58.8) scale(0.12 -0.12)">
     <defs>
      <path id="DejaVuSans-28" d="M 1984 4856 
Q 1566 4138 1362 3434 
Q 1159 2731 1159 2009 
Q 1159 1288 1364 580 
Q 1569 -128 1984 -844 
L 1484 -844 
Q 1016 -109 783 600 
Q 550 1309 550 2009 
Q 550 2706 781 3412 
Q 1013 4119 1484 4856 
L 1984 4856 
z
" transform="scale(0.015625)"/>
      <path id="DejaVuSans-27" d="M 1147 4666 
L 1147 2931 
L 616 2931 
L 616 4666 
L 1147 4666 
z
" transform="scale(0.015625)"/>
      <path id="DejaVuSans-29" d="M 513 4856 
L 1013 4856 
Q 1481 4119 1714 3412 
Q 1947 2706 1947 2009 
Q 1947 1309 1714 600 
Q 1481 -109 1013 -844 
L 513 -844 
Q 928 -128 1133 580 
Q 1338 1288 1338 2009 
Q 1338 2731 1133 3434 
Q 928 4138 513 4856 
z
" transform="scale(0.015625)"/>
     </defs>
     <use xlink:href="#DejaVuSans-28"/>
     <use xlink:href="#DejaVuSans-50" x="39.013672"/>
     <use xlink:href="#DejaVuSans-6f" x="95.691406"/>
     <use xlink:href="#DejaVuSans-73" x="156.873047"/>
     <use xlink:href="#DejaVuSans-69" x="208.972656"/>
     <use xlink:href="#DejaVuSans-74" x="236.755859"/>
     <use xlink:href="#DejaVuSans-69" x="275.964844"/>
     <use xlink:href="#DejaVuSans-76" x="303.748047"/>
     <use xlink:href="#DejaVuSans-65" x="362.927734"/>
     <use xlink:href="#DejaVuSans-20" x="424.451172"/>
     <use xlink:href="#DejaVuSans-6c" x="456.238281"/>
     <use xlink:href="#DejaVuSans-61" x="484.021484"/>
     <use xlink:href="#DejaVuSans-62" x="545.300781"/>
     <use xlink:href="#DejaVuSans-65" x="608.777344"/>
     <use xlink:href="#DejaVuSans-6c" x="670.300781"/>
     <use xlink:href="#DejaVuSans-27" x="698.083984"/>
     <use xlink:href="#DejaVuSans-29" x="725.574219"/>
    </g>
   </g>
   <g id="legend_1">
    <g id="patch_7">
     <path d="M 323.2375 475.6 
L 477.65 475.6 
Q 479.65 475.6 479.65 473.6 
L 479.65 327.81875 
Q 479.65 325.81875 477.65 325.81875 
L 323.2375 325.81875 
Q 321.2375 325.81875 321.2375 327.81875 
L 321.2375 473.6 
Q 321.2375 475.6 323.2375 475.6 
z
" style="fill: #ffffff; opacity: 0.8; stroke: #cccccc; stroke-linejoin: miter"/>
    </g>
    <g id="line2d_25">
     <path d="M 325.2375 333.917188 
L 335.2375 333.917188 
L 345.2375 333.917188 
" style="fill: none; stroke: #1f77b4; stroke-opacity: 0.3; stroke-linecap: square"/>
    </g>
    <g id="text_16">
     <!-- ROC fold 0 (AUC = 0.40) -->
     <g transform="translate(353.2375 337.417188) scale(0.1 -0.1)">
      <defs>
       <path id="DejaVuSans-66" d="M 2375 4863 
L 2375 4384 
L 1825 4384 
Q 1516 4384 1395 4259 
Q 1275 4134 1275 3809 
L 1275 3500 
L 2222 3500 
L 2222 3053 
L 1275 3053 
L 1275 0 
L 697 0 
L 697 3053 
L 147 3053 
L 147 3500 
L 697 3500 
L 697 3744 
Q 697 4328 969 4595 
Q 1241 4863 1831 4863 
L 2375 4863 
z
" transform="scale(0.015625)"/>
       <path id="DejaVuSans-64" d="M 2906 2969 
L 2906 4863 
L 3481 4863 
L 3481 0 
L 2906 0 
L 2906 525 
Q 2725 213 2448 61 
Q 2172 -91 1784 -91 
Q 1150 -91 751 415 
Q 353 922 353 1747 
Q 353 2572 751 3078 
Q 1150 3584 1784 3584 
Q 2172 3584 2448 3432 
Q 2725 3281 2906 2969 
z
M 947 1747 
Q 947 1113 1208 752 
Q 1469 391 1925 391 
Q 2381 391 2643 752 
Q 2906 1113 2906 1747 
Q 2906 2381 2643 2742 
Q 2381 3103 1925 3103 
Q 1469 3103 1208 2742 
Q 947 2381 947 1747 
z
" transform="scale(0.015625)"/>
       <path id="DejaVuSans-41" d="M 2188 4044 
L 1331 1722 
L 3047 1722 
L 2188 4044 
z
M 1831 4666 
L 2547 4666 
L 4325 0 
L 3669 0 
L 3244 1197 
L 1141 1197 
L 716 0 
L 50 0 
L 1831 4666 
z
" transform="scale(0.015625)"/>
       <path id="DejaVuSans-55" d="M 556 4666 
L 1191 4666 
L 1191 1831 
Q 1191 1081 1462 751 
Q 1734 422 2344 422 
Q 2950 422 3222 751 
Q 3494 1081 3494 1831 
L 3494 4666 
L 4128 4666 
L 4128 1753 
Q 4128 841 3676 375 
Q 3225 -91 2344 -91 
Q 1459 -91 1007 375 
Q 556 841 556 1753 
L 556 4666 
z
" transform="scale(0.015625)"/>
       <path id="DejaVuSans-3d" d="M 678 2906 
L 4684 2906 
L 4684 2381 
L 678 2381 
L 678 2906 
z
M 678 1631 
L 4684 1631 
L 4684 1100 
L 678 1100 
L 678 1631 
z
" transform="scale(0.015625)"/>
      </defs>
      <use xlink:href="#DejaVuSans-52"/>
      <use xlink:href="#DejaVuSans-4f" x="69.482422"/>
      <use xlink:href="#DejaVuSans-43" x="148.193359"/>
      <use xlink:href="#DejaVuSans-20" x="218.017578"/>
      <use xlink:href="#DejaVuSans-66" x="249.804688"/>
      <use xlink:href="#DejaVuSans-6f" x="285.009766"/>
      <use xlink:href="#DejaVuSans-6c" x="346.191406"/>
      <use xlink:href="#DejaVuSans-64" x="373.974609"/>
      <use xlink:href="#DejaVuSans-20" x="437.451172"/>
      <use xlink:href="#DejaVuSans-30" x="469.238281"/>
      <use xlink:href="#DejaVuSans-20" x="532.861328"/>
      <use xlink:href="#DejaVuSans-28" x="564.648438"/>
      <use xlink:href="#DejaVuSans-41" x="603.662109"/>
      <use xlink:href="#DejaVuSans-55" x="672.070312"/>
      <use xlink:href="#DejaVuSans-43" x="745.263672"/>
      <use xlink:href="#DejaVuSans-20" x="815.087891"/>
      <use xlink:href="#DejaVuSans-3d" x="846.875"/>
      <use xlink:href="#DejaVuSans-20" x="930.664062"/>
      <use xlink:href="#DejaVuSans-30" x="962.451172"/>
      <use xlink:href="#DejaVuSans-2e" x="1026.074219"/>
      <use xlink:href="#DejaVuSans-34" x="1057.861328"/>
      <use xlink:href="#DejaVuSans-30" x="1121.484375"/>
      <use xlink:href="#DejaVuSans-29" x="1185.107422"/>
     </g>
    </g>
    <g id="line2d_26">
     <path d="M 325.2375 348.595313 
L 335.2375 348.595313 
L 345.2375 348.595313 
" style="fill: none; stroke: #ff7f0e; stroke-opacity: 0.3; stroke-linecap: square"/>
    </g>
    <g id="text_17">
     <!-- ROC fold 1 (AUC = 0.70) -->
     <g transform="translate(353.2375 352.095313) scale(0.1 -0.1)">
      <defs>
       <path id="DejaVuSans-37" d="M 525 4666 
L 3525 4666 
L 3525 4397 
L 1831 0 
L 1172 0 
L 2766 4134 
L 525 4134 
L 525 4666 
z
" transform="scale(0.015625)"/>
      </defs>
      <use xlink:href="#DejaVuSans-52"/>
      <use xlink:href="#DejaVuSans-4f" x="69.482422"/>
      <use xlink:href="#DejaVuSans-43" x="148.193359"/>
      <use xlink:href="#DejaVuSans-20" x="218.017578"/>
      <use xlink:href="#DejaVuSans-66" x="249.804688"/>
      <use xlink:href="#DejaVuSans-6f" x="285.009766"/>
      <use xlink:href="#DejaVuSans-6c" x="346.191406"/>
      <use xlink:href="#DejaVuSans-64" x="373.974609"/>
      <use xlink:href="#DejaVuSans-20" x="437.451172"/>
      <use xlink:href="#DejaVuSans-31" x="469.238281"/>
      <use xlink:href="#DejaVuSans-20" x="532.861328"/>
      <use xlink:href="#DejaVuSans-28" x="564.648438"/>
      <use xlink:href="#DejaVuSans-41" x="603.662109"/>
      <use xlink:href="#DejaVuSans-55" x="672.070312"/>
      <use xlink:href="#DejaVuSans-43" x="745.263672"/>
      <use xlink:href="#DejaVuSans-20" x="815.087891"/>
      <use xlink:href="#DejaVuSans-3d" x="846.875"/>
      <use xlink:href="#DejaVuSans-20" x="930.664062"/>
      <use xlink:href="#DejaVuSans-30" x="962.451172"/>
      <use xlink:href="#DejaVuSans-2e" x="1026.074219"/>
      <use xlink:href="#DejaVuSans-37" x="1057.861328"/>
      <use xlink:href="#DejaVuSans-30" x="1121.484375"/>
      <use xlink:href="#DejaVuSans-29" x="1185.107422"/>
     </g>
    </g>
    <g id="line2d_27">
     <path d="M 325.2375 363.273438 
L 335.2375 363.273438 
L 345.2375 363.273438 
" style="fill: none; stroke: #2ca02c; stroke-opacity: 0.3; stroke-linecap: square"/>
    </g>
    <g id="text_18">
     <!-- ROC fold 2 (AUC = 0.55) -->
     <g transform="translate(353.2375 366.773438) scale(0.1 -0.1)">
      <defs>
       <path id="DejaVuSans-35" d="M 691 4666 
L 3169 4666 
L 3169 4134 
L 1269 4134 
L 1269 2991 
Q 1406 3038 1543 3061 
Q 1681 3084 1819 3084 
Q 2600 3084 3056 2656 
Q 3513 2228 3513 1497 
Q 3513 744 3044 326 
Q 2575 -91 1722 -91 
Q 1428 -91 1123 -41 
Q 819 9 494 109 
L 494 744 
Q 775 591 1075 516 
Q 1375 441 1709 441 
Q 2250 441 2565 725 
Q 2881 1009 2881 1497 
Q 2881 1984 2565 2268 
Q 2250 2553 1709 2553 
Q 1456 2553 1204 2497 
Q 953 2441 691 2322 
L 691 4666 
z
" transform="scale(0.015625)"/>
      </defs>
      <use xlink:href="#DejaVuSans-52"/>
      <use xlink:href="#DejaVuSans-4f" x="69.482422"/>
      <use xlink:href="#DejaVuSans-43" x="148.193359"/>
      <use xlink:href="#DejaVuSans-20" x="218.017578"/>
      <use xlink:href="#DejaVuSans-66" x="249.804688"/>
      <use xlink:href="#DejaVuSans-6f" x="285.009766"/>
      <use xlink:href="#DejaVuSans-6c" x="346.191406"/>
      <use xlink:href="#DejaVuSans-64" x="373.974609"/>
      <use xlink:href="#DejaVuSans-20" x="437.451172"/>
      <use xlink:href="#DejaVuSans-32" x="469.238281"/>
      <use xlink:href="#DejaVuSans-20" x="532.861328"/>
      <use xlink:href="#DejaVuSans-28" x="564.648438"/>
      <use xlink:href="#DejaVuSans-41" x="603.662109"/>
      <use xlink:href="#DejaVuSans-55" x="672.070312"/>
      <use xlink:href="#DejaVuSans-43" x="745.263672"/>
      <use xlink:href="#DejaVuSans-20" x="815.087891"/>
      <use xlink:href="#DejaVuSans-3d" x="846.875"/>
      <use xlink:href="#DejaVuSans-20" x="930.664062"/>
      <use xlink:href="#DejaVuSans-30" x="962.451172"/>
      <use xlink:href="#DejaVuSans-2e" x="1026.074219"/>
      <use xlink:href="#DejaVuSans-35" x="1057.861328"/>
      <use xlink:href="#DejaVuSans-35" x="1121.484375"/>
      <use xlink:href="#DejaVuSans-29" x="1185.107422"/>
     </g>
    </g>
    <g id="line2d_28">
     <path d="M 325.2375 377.951563 
L 335.2375 377.951563 
L 345.2375 377.951563 
" style="fill: none; stroke: #d62728; stroke-opacity: 0.3; stroke-linecap: square"/>
    </g>
    <g id="text_19">
     <!-- ROC fold 3 (AUC = 0.45) -->
     <g transform="translate(353.2375 381.451563) scale(0.1 -0.1)">
      <defs>
       <path id="DejaVuSans-33" d="M 2597 2516 
Q 3050 2419 3304 2112 
Q 3559 1806 3559 1356 
Q 3559 666 3084 287 
Q 2609 -91 1734 -91 
Q 1441 -91 1130 -33 
Q 819 25 488 141 
L 488 750 
Q 750 597 1062 519 
Q 1375 441 1716 441 
Q 2309 441 2620 675 
Q 2931 909 2931 1356 
Q 2931 1769 2642 2001 
Q 2353 2234 1838 2234 
L 1294 2234 
L 1294 2753 
L 1863 2753 
Q 2328 2753 2575 2939 
Q 2822 3125 2822 3475 
Q 2822 3834 2567 4026 
Q 2313 4219 1838 4219 
Q 1578 4219 1281 4162 
Q 984 4106 628 3988 
L 628 4550 
Q 988 4650 1302 4700 
Q 1616 4750 1894 4750 
Q 2613 4750 3031 4423 
Q 3450 4097 3450 3541 
Q 3450 3153 3228 2886 
Q 3006 2619 2597 2516 
z
" transform="scale(0.015625)"/>
      </defs>
      <use xlink:href="#DejaVuSans-52"/>
      <use xlink:href="#DejaVuSans-4f" x="69.482422"/>
      <use xlink:href="#DejaVuSans-43" x="148.193359"/>
      <use xlink:href="#DejaVuSans-20" x="218.017578"/>
      <use xlink:href="#DejaVuSans-66" x="249.804688"/>
      <use xlink:href="#DejaVuSans-6f" x="285.009766"/>
      <use xlink:href="#DejaVuSans-6c" x="346.191406"/>
      <use xlink:href="#DejaVuSans-64" x="373.974609"/>
      <use xlink:href="#DejaVuSans-20" x="437.451172"/>
      <use xlink:href="#DejaVuSans-33" x="469.238281"/>
      <use xlink:href="#DejaVuSans-20" x="532.861328"/>
      <use xlink:href="#DejaVuSans-28" x="564.648438"/>
      <use xlink:href="#DejaVuSans-41" x="603.662109"/>
      <use xlink:href="#DejaVuSans-55" x="672.070312"/>
      <use xlink:href="#DejaVuSans-43" x="745.263672"/>
      <use xlink:href="#DejaVuSans-20" x="815.087891"/>
      <use xlink:href="#DejaVuSans-3d" x="846.875"/>
      <use xlink:href="#DejaVuSans-20" x="930.664062"/>
      <use xlink:href="#DejaVuSans-30" x="962.451172"/>
      <use xlink:href="#DejaVuSans-2e" x="1026.074219"/>
      <use xlink:href="#DejaVuSans-34" x="1057.861328"/>
      <use xlink:href="#DejaVuSans-35" x="1121.484375"/>
      <use xlink:href="#DejaVuSans-29" x="1185.107422"/>
     </g>
    </g>
    <g id="line2d_29">
     <path d="M 325.2375 392.629688 
L 335.2375 392.629688 
L 345.2375 392.629688 
" style="fill: none; stroke: #9467bd; stroke-opacity: 0.3; stroke-linecap: square"/>
    </g>
    <g id="text_20">
     <!-- ROC fold 4 (AUC = 0.40) -->
     <g transform="translate(353.2375 396.129688) scale(0.1 -0.1)">
      <use xlink:href="#DejaVuSans-52"/>
      <use xlink:href="#DejaVuSans-4f" x="69.482422"/>
      <use xlink:href="#DejaVuSans-43" x="148.193359"/>
      <use xlink:href="#DejaVuSans-20" x="218.017578"/>
      <use xlink:href="#DejaVuSans-66" x="249.804688"/>
      <use xlink:href="#DejaVuSans-6f" x="285.009766"/>
      <use xlink:href="#DejaVuSans-6c" x="346.191406"/>
      <use xlink:href="#DejaVuSans-64" x="373.974609"/>
      <use xlink:href="#DejaVuSans-20" x="437.451172"/>
      <use xlink:href="#DejaVuSans-34" x="469.238281"/>
      <use xlink:href="#DejaVuSans-20" x="532.861328"/>
      <use xlink:href="#DejaVuSans-28" x="564.648438"/>
      <use xlink:href="#DejaVuSans-41" x="603.662109"/>
      <use xlink:href="#DejaVuSans-55" x="672.070312"/>
      <use xlink:href="#DejaVuSans-43" x="745.263672"/>
      <use xlink:href="#DejaVuSans-20" x="815.087891"/>
      <use xlink:href="#DejaVuSans-3d" x="846.875"/>
      <use xlink:href="#DejaVuSans-20" x="930.664062"/>
      <use xlink:href="#DejaVuSans-30" x="962.451172"/>
      <use xlink:href="#DejaVuSans-2e" x="1026.074219"/>
      <use xlink:href="#DejaVuSans-34" x="1057.861328"/>
      <use xlink:href="#DejaVuSans-30" x="1121.484375"/>
      <use xlink:href="#DejaVuSans-29" x="1185.107422"/>
     </g>
    </g>
    <g id="line2d_30">
     <path d="M 325.2375 407.307813 
L 335.2375 407.307813 
L 345.2375 407.307813 
" style="fill: none; stroke: #8c564b; stroke-opacity: 0.3; stroke-linecap: square"/>
    </g>
    <g id="text_21">
     <!-- ROC fold 5 (AUC = 0.70) -->
     <g transform="translate(353.2375 410.807813) scale(0.1 -0.1)">
      <use xlink:href="#DejaVuSans-52"/>
      <use xlink:href="#DejaVuSans-4f" x="69.482422"/>
      <use xlink:href="#DejaVuSans-43" x="148.193359"/>
      <use xlink:href="#DejaVuSans-20" x="218.017578"/>
      <use xlink:href="#DejaVuSans-66" x="249.804688"/>
      <use xlink:href="#DejaVuSans-6f" x="285.009766"/>
      <use xlink:href="#DejaVuSans-6c" x="346.191406"/>
      <use xlink:href="#DejaVuSans-64" x="373.974609"/>
      <use xlink:href="#DejaVuSans-20" x="437.451172"/>
      <use xlink:href="#DejaVuSans-35" x="469.238281"/>
      <use xlink:href="#DejaVuSans-20" x="532.861328"/>
      <use xlink:href="#DejaVuSans-28" x="564.648438"/>
      <use xlink:href="#DejaVuSans-41" x="603.662109"/>
      <use xlink:href="#DejaVuSans-55" x="672.070312"/>
      <use xlink:href="#DejaVuSans-43" x="745.263672"/>
      <use xlink:href="#DejaVuSans-20" x="815.087891"/>
      <use xlink:href="#DejaVuSans-3d" x="846.875"/>
      <use xlink:href="#DejaVuSans-20" x="930.664062"/>
      <use xlink:href="#DejaVuSans-30" x="962.451172"/>
      <use xlink:href="#DejaVuSans-2e" x="1026.074219"/>
      <use xlink:href="#DejaVuSans-37" x="1057.861328"/>
      <use xlink:href="#DejaVuSans-30" x="1121.484375"/>
      <use xlink:href="#DejaVuSans-29" x="1185.107422"/>
     </g>
    </g>
    <g id="line2d_31">
     <path d="M 325.2375 421.985938 
L 335.2375 421.985938 
L 345.2375 421.985938 
" style="fill: none; stroke: #e377c2; stroke-opacity: 0.3; stroke-linecap: square"/>
    </g>
    <g id="text_22">
     <!-- ROC fold 6 (AUC = 0.35) -->
     <g transform="translate(353.2375 425.485938) scale(0.1 -0.1)">
      <use xlink:href="#DejaVuSans-52"/>
      <use xlink:href="#DejaVuSans-4f" x="69.482422"/>
      <use xlink:href="#DejaVuSans-43" x="148.193359"/>
      <use xlink:href="#DejaVuSans-20" x="218.017578"/>
      <use xlink:href="#DejaVuSans-66" x="249.804688"/>
      <use xlink:href="#DejaVuSans-6f" x="285.009766"/>
      <use xlink:href="#DejaVuSans-6c" x="346.191406"/>
      <use xlink:href="#DejaVuSans-64" x="373.974609"/>
      <use xlink:href="#DejaVuSans-20" x="437.451172"/>
      <use xlink:href="#DejaVuSans-36" x="469.238281"/>
      <use xlink:href="#DejaVuSans-20" x="532.861328"/>
      <use xlink:href="#DejaVuSans-28" x="564.648438"/>
      <use xlink:href="#DejaVuSans-41" x="603.662109"/>
      <use xlink:href="#DejaVuSans-55" x="672.070312"/>
      <use xlink:href="#DejaVuSans-43" x="745.263672"/>
      <use xlink:href="#DejaVuSans-20" x="815.087891"/>
      <use xlink:href="#DejaVuSans-3d" x="846.875"/>
      <use xlink:href="#DejaVuSans-20" x="930.664062"/>
      <use xlink:href="#DejaVuSans-30" x="962.451172"/>
      <use xlink:href="#DejaVuSans-2e" x="1026.074219"/>
      <use xlink:href="#DejaVuSans-33" x="1057.861328"/>
      <use xlink:href="#DejaVuSans-35" x="1121.484375"/>
      <use xlink:href="#DejaVuSans-29" x="1185.107422"/>
     </g>
    </g>
    <g id="line2d_32">
     <path d="M 325.2375 436.664062 
L 335.2375 436.664062 
L 345.2375 436.664062 
" style="fill: none; stroke: #7f7f7f; stroke-opacity: 0.3; stroke-linecap: square"/>
    </g>
    <g id="text_23">
     <!-- ROC fold 7 (AUC = 0.65) -->
     <g transform="translate(353.2375 440.164062) scale(0.1 -0.1)">
      <use xlink:href="#DejaVuSans-52"/>
      <use xlink:href="#DejaVuSans-4f" x="69.482422"/>
      <use xlink:href="#DejaVuSans-43" x="148.193359"/>
      <use xlink:href="#DejaVuSans-20" x="218.017578"/>
      <use xlink:href="#DejaVuSans-66" x="249.804688"/>
      <use xlink:href="#DejaVuSans-6f" x="285.009766"/>
      <use xlink:href="#DejaVuSans-6c" x="346.191406"/>
      <use xlink:href="#DejaVuSans-64" x="373.974609"/>
      <use xlink:href="#DejaVuSans-20" x="437.451172"/>
      <use xlink:href="#DejaVuSans-37" x="469.238281"/>
      <use xlink:href="#DejaVuSans-20" x="532.861328"/>
      <use xlink:href="#DejaVuSans-28" x="564.648438"/>
      <use xlink:href="#DejaVuSans-41" x="603.662109"/>
      <use xlink:href="#DejaVuSans-55" x="672.070312"/>
      <use xlink:href="#DejaVuSans-43" x="745.263672"/>
      <use xlink:href="#DejaVuSans-20" x="815.087891"/>
      <use xlink:href="#DejaVuSans-3d" x="846.875"/>
      <use xlink:href="#DejaVuSans-20" x="930.664062"/>
      <use xlink:href="#DejaVuSans-30" x="962.451172"/>
      <use xlink:href="#DejaVuSans-2e" x="1026.074219"/>
      <use xlink:href="#DejaVuSans-36" x="1057.861328"/>
      <use xlink:href="#DejaVuSans-35" x="1121.484375"/>
      <use xlink:href="#DejaVuSans-29" x="1185.107422"/>
     </g>
    </g>
    <g id="line2d_33">
     <path d="M 325.2375 451.342188 
L 335.2375 451.342188 
L 345.2375 451.342188 
" style="fill: none; stroke: #bcbd22; stroke-opacity: 0.3; stroke-linecap: square"/>
    </g>
    <g id="text_24">
     <!-- ROC fold 8 (AUC = 0.50) -->
     <g transform="translate(353.2375 454.842188) scale(0.1 -0.1)">
      <use xlink:href="#DejaVuSans-52"/>
      <use xlink:href="#DejaVuSans-4f" x="69.482422"/>
      <use xlink:href="#DejaVuSans-43" x="148.193359"/>
      <use xlink:href="#DejaVuSans-20" x="218.017578"/>
      <use xlink:href="#DejaVuSans-66" x="249.804688"/>
      <use xlink:href="#DejaVuSans-6f" x="285.009766"/>
      <use xlink:href="#DejaVuSans-6c" x="346.191406"/>
      <use xlink:href="#DejaVuSans-64" x="373.974609"/>
      <use xlink:href="#DejaVuSans-20" x="437.451172"/>
      <use xlink:href="#DejaVuSans-38" x="469.238281"/>
      <use xlink:href="#DejaVuSans-20" x="532.861328"/>
      <use xlink:href="#DejaVuSans-28" x="564.648438"/>
      <use xlink:href="#DejaVuSans-41" x="603.662109"/>
      <use xlink:href="#DejaVuSans-55" x="672.070312"/>
      <use xlink:href="#DejaVuSans-43" x="745.263672"/>
      <use xlink:href="#DejaVuSans-20" x="815.087891"/>
      <use xlink:href="#DejaVuSans-3d" x="846.875"/>
      <use xlink:href="#DejaVuSans-20" x="930.664062"/>
      <use xlink:href="#DejaVuSans-30" x="962.451172"/>
      <use xlink:href="#DejaVuSans-2e" x="1026.074219"/>
      <use xlink:href="#DejaVuSans-35" x="1057.861328"/>
      <use xlink:href="#DejaVuSans-30" x="1121.484375"/>
      <use xlink:href="#DejaVuSans-29" x="1185.107422"/>
     </g>
    </g>
    <g id="line2d_34">
     <path d="M 325.2375 466.020312 
L 335.2375 466.020312 
L 345.2375 466.020312 
" style="fill: none; stroke: #17becf; stroke-opacity: 0.3; stroke-linecap: square"/>
    </g>
    <g id="text_25">
     <!-- ROC fold 9 (AUC = 0.55) -->
     <g transform="translate(353.2375 469.520312) scale(0.1 -0.1)">
      <defs>
       <path id="DejaVuSans-39" d="M 703 97 
L 703 672 
Q 941 559 1184 500 
Q 1428 441 1663 441 
Q 2288 441 2617 861 
Q 2947 1281 2994 2138 
Q 2813 1869 2534 1725 
Q 2256 1581 1919 1581 
Q 1219 1581 811 2004 
Q 403 2428 403 3163 
Q 403 3881 828 4315 
Q 1253 4750 1959 4750 
Q 2769 4750 3195 4129 
Q 3622 3509 3622 2328 
Q 3622 1225 3098 567 
Q 2575 -91 1691 -91 
Q 1453 -91 1209 -44 
Q 966 3 703 97 
z
M 1959 2075 
Q 2384 2075 2632 2365 
Q 2881 2656 2881 3163 
Q 2881 3666 2632 3958 
Q 2384 4250 1959 4250 
Q 1534 4250 1286 3958 
Q 1038 3666 1038 3163 
Q 1038 2656 1286 2365 
Q 1534 2075 1959 2075 
z
" transform="scale(0.015625)"/>
      </defs>
      <use xlink:href="#DejaVuSans-52"/>
      <use xlink:href="#DejaVuSans-4f" x="69.482422"/>
      <use xlink:href="#DejaVuSans-43" x="148.193359"/>
      <use xlink:href="#DejaVuSans-20" x="218.017578"/>
      <use xlink:href="#DejaVuSans-66" x="249.804688"/>
      <use xlink:href="#DejaVuSans-6f" x="285.009766"/>
      <use xlink:href="#DejaVuSans-6c" x="346.191406"/>
      <use xlink:href="#DejaVuSans-64" x="373.974609"/>
      <use xlink:href="#DejaVuSans-20" x="437.451172"/>
      <use xlink:href="#DejaVuSans-39" x="469.238281"/>
      <use xlink:href="#DejaVuSans-20" x="532.861328"/>
      <use xlink:href="#DejaVuSans-28" x="564.648438"/>
      <use xlink:href="#DejaVuSans-41" x="603.662109"/>
      <use xlink:href="#DejaVuSans-55" x="672.070312"/>
      <use xlink:href="#DejaVuSans-43" x="745.263672"/>
      <use xlink:href="#DejaVuSans-20" x="815.087891"/>
      <use xlink:href="#DejaVuSans-3d" x="846.875"/>
      <use xlink:href="#DejaVuSans-20" x="930.664062"/>
      <use xlink:href="#DejaVuSans-30" x="962.451172"/>
      <use xlink:href="#DejaVuSans-2e" x="1026.074219"/>
      <use xlink:href="#DejaVuSans-35" x="1057.861328"/>
      <use xlink:href="#DejaVuSans-35" x="1121.484375"/>
      <use xlink:href="#DejaVuSans-29" x="1185.107422"/>
     </g>
    </g>
   </g>
  </g>
 </g>
 <defs>
  <clipPath id="p65255f8b39">
   <rect x="68.85" y="64.8" width="415.8" height="415.8"/>
  </clipPath>
 </defs>
</svg>
